# xmcd
#
# Track frame offsets:
#	150
#	16737
#	33194
#	50446
#	66973
#	84137
#	99059
#	118891
#	135393
#	149807
#	165533
#	180120
#	201059
#	213941
#	229347
#	240792
#	256699
#	272380
#	287167
#	300100
#	318026
#
# Disc length: 4413 seconds
#
# Revision: 0
# Processed by: cddbd v1.5.2PL0 Copyright (c) Steve Scherf et al.
# Submitted via: EZCDAudioConverter 4.0.5.1
#
DISCID=00113b15
DTITLE=MULTI MUSIC GROUP - HOTT ROCKS # 282 CAN
DYEAR=2019
DGENRE=ROCK
TTITLE0=Korn - You'll Never Find Me
TTITLE1=Cage The Elephant - Social Cues
TTITLE2=Alter Bridge - Wouldn't You Rather
TTITLE3=Cold War Kids - Complainer
TTITLE4=Royal Tusk - First Time
TTITLE5=Scott Stapp - Purpose For Pain
TTITLE6=Twenty-One Pilots - The Hype
TTITLE7=Black Pistol Fire - Pick Your Poison
TTITLE8=Hobo Johnson - Typical Story
TTITLE9=Ed Sheeran ft. Chris Stapleton and Bruno Mars - Blow
TTITLE10=Royal Bliss - Pain
TTITLE11=Metric - Risk
TTITLE12=The Regrettes - I Dare You
TTITLE13=Badflower - The Jester
TTITLE14=The Dirty Heads - Lift Me Up
TTITLE15=Through Fire - All Animal
TTITLE16=Bob Moses - Nothing But You
TTITLE17=Spoon - No Bullets Spent
TTITLE18=Bishop Briggs - Champion
TTITLE19=White Reaper - Might Be Right
TTITLE20=Shaed - Thunder
EXTD=
EXTT0=
EXTT1=
EXTT2=
EXTT3=
EXTT4=
EXTT5=
EXTT6=
EXTT7=
EXTT8=
EXTT9=
EXTT10=
EXTT11=
EXTT12=
EXTT13=
EXTT14=
EXTT15=
EXTT16=
EXTT17=
EXTT18=
EXTT19=
EXTT20=
PLAYORDER=
